<svg id="Layer_1" data-name="Layer 1" xmlns="http://www.w3.org/2000/svg" viewBox="0 0 1500 1000"><defs><style>.cls-1{fill:#fff;}.cls-2{fill:#d11d23;}.cls-3{fill:#012169;}</style></defs><title>United Kingdom</title><rect class="cls-1" width="1500" height="1000"/><polyline class="cls-2" points="1500 400 825 400 825 0 675 0 675 400 0 400 0 600 675 600 675 1000 825 1000 825 600 1500 600"/><path class="cls-2" d="M1000,666.67h111.8L1500,925.46V1000M500,333.33H388.2L0,74.54V0Zm0,333.34H611.8L111.8,1000H0Zm500-333.34H888.2L1388.2,0H1500Z"/><path class="cls-3" d="M0,666.67V888.2L332.3,666.67m1167.7,0V888.2L1167.7,666.67ZM0,333.33V111.8L332.3,333.33Zm1500,0V111.8L1167.7,333.33ZM625,1000V695.14L167.7,1000Zm250,0V695.14L1332.3,1000ZM625,0V304.86L167.7,0ZM875,0V304.86L1332.3,0Z"/></svg>